<svg width="132" height="132" viewBox="0 0 132 132" fill="none" xmlns="http://www.w3.org/2000/svg">
<circle cx="66" cy="66" r="66" fill="#2D407C"/>
<g clip-path="url(#clip0)">
<path d="M34.3827 32L98.2099 32C101.734 32 104.593 34.8741 104.593 38.4167V81.1944C104.593 84.737 101.734 87.6111 98.2099 87.6111H72.679L74.8066 94.0278H84.3807C86.1492 94.0278 87.572 95.4582 87.572 97.2361C87.572 99.0141 86.1492 100.444 84.3807 100.444H48.2119C46.4434 100.444 45.0206 99.0141 45.0206 97.2361C45.0206 95.4582 46.4434 94.0278 48.2119 94.0278H57.786L59.9136 87.6111H34.3827C30.8589 87.6111 28 84.737 28 81.1944V38.4167C28 34.8741 30.8589 32 34.3827 32ZM36.5103 79.0556H96.0823V40.5556L36.5103 40.5556V79.0556Z" fill="#101D45"/>
</g>
<defs>
<clipPath id="clip0">
<rect width="76.5926" height="68.4444" fill="white" transform="matrix(-1 0 0 1 104.593 32)"/>
</clipPath>
</defs>
</svg>
