<svg width="46" height="46" viewBox="0 0 46 46" fill="none" xmlns="http://www.w3.org/2000/svg">
<circle cx="23" cy="23" r="23" fill="#2D407C"/>
<path d="M33.9581 16.9747C35.0442 16.1442 35.9593 15.1056 36.7067 13.9083L36.7067 13.9071C35.7144 14.3739 34.6596 14.6824 33.559 14.8292C34.6934 14.1002 35.5625 12.9505 35.9748 11.5623C34.9172 12.2409 33.7507 12.7177 32.5088 12.982C31.513 11.8175 30.0894 11.0935 28.5328 11.0862C25.5126 11.0721 23.0686 13.7263 23.0534 16.9936C23.0512 17.4638 23.0856 17.9161 23.1734 18.3469C18.6398 18.0845 14.6372 15.7027 11.9576 12.0889C11.4834 12.9753 11.2014 13.9903 11.1963 15.0838C11.1867 17.1382 12.1505 18.9632 13.5969 20.025C12.72 20.0028 11.862 19.7215 11.1356 19.2828L11.1353 19.3479C11.1219 22.2306 13.001 24.6338 15.4787 25.1976C15.0335 25.3281 14.5498 25.3886 14.0475 25.3862C13.6983 25.3846 13.3458 25.3612 13.0158 25.2801C13.711 27.632 15.7098 29.369 18.0933 29.4368C16.2299 31.0063 13.8683 31.9465 11.317 31.9346C10.8702 31.9325 10.4412 31.9088 10.0124 31.8477C12.4216 33.5529 15.2798 34.5344 18.3687 34.5489C27.9959 34.5939 34.3111 25.8897 33.9581 16.9747V16.9747Z" fill="white"/>
</svg>
