<svg width="46" height="46" viewBox="0 0 46 46" fill="none" xmlns="http://www.w3.org/2000/svg">
<circle cx="23" cy="23" r="23" fill="#2D407C"/>
<g clip-path="url(#clip0)">
<path d="M17.8129 31.6543H14.3949V20.6191H17.8129V31.6543ZM18.1539 17.1033C18.1539 15.9984 17.2575 15.1016 16.1531 15.1016C15.0446 15.1016 14.1504 15.9984 14.1504 17.1033C14.1504 18.2086 15.0446 19.1055 16.1531 19.1055C17.2575 19.1055 18.1539 18.2086 18.1539 17.1033ZM30.6055 25.5832C30.6055 22.6209 29.9797 20.4238 26.5192 20.4238C24.8563 20.4238 23.7402 21.2554 23.2845 22.1202H23.2812V20.6191H19.9609V31.6543H23.2812V26.1752C23.2812 24.7403 23.6465 23.3503 25.4251 23.3503C27.1795 23.3503 27.2363 24.9912 27.2363 26.2664V31.6543H30.6055V25.5832ZM35 33.0703V13.9297C35 12.3142 33.6858 11 32.0703 11H12.9297C11.3142 11 10 12.3142 10 13.9297V33.0703C10 34.6858 11.3142 36 12.9297 36H32.0703C33.6858 36 35 34.6858 35 33.0703V33.0703ZM32.0703 12.9531C32.6088 12.9531 33.0469 13.3912 33.0469 13.9297V33.0703C33.0469 33.6088 32.6088 34.0469 32.0703 34.0469H12.9297C12.3912 34.0469 11.9531 33.6088 11.9531 33.0703V13.9297C11.9531 13.3912 12.3912 12.9531 12.9297 12.9531H32.0703Z" fill="white"/>
</g>
<defs>
<clipPath id="clip0">
<rect width="25" height="25" fill="white" transform="translate(10 11)"/>
</clipPath>
</defs>
</svg>
