<svg width="46" height="46" viewBox="0 0 46 46" fill="none" xmlns="http://www.w3.org/2000/svg">
<circle cx="23" cy="23" r="23" fill="#2D407C"/>
<g clip-path="url(#clip0)">
<path d="M33.6752 11L12.3237 11C11.5925 11.0004 10.9998 11.5934 11 12.3248L11 33.6763C11.0004 34.4075 11.5934 35.0002 12.3248 35L33.6752 35C34.4067 35.0002 34.9998 34.4073 35 33.6758C35 33.6756 35 33.6754 35 33.6752L35 12.3237C34.9996 11.5925 34.4066 10.9998 33.6752 11V11Z" fill="white"/>
<path d="M27.5703 34.9999L27.5703 25.7187L30.6992 25.7187L31.168 22.0859L27.5703 22.0859L27.5703 19.7722C27.5703 18.7228 27.8616 18.0078 29.3664 18.0078L31.2734 18.0078L31.2734 14.7673C30.9416 14.7232 29.8033 14.6245 28.4787 14.6245C25.7131 14.6245 23.8203 16.312 23.8203 19.4124L23.8203 22.0859L20.7031 22.0859L20.7031 25.7187L23.8203 25.7187L23.8203 34.9999L27.5703 34.9999Z" fill="#2D407C"/>
</g>
<defs>
<clipPath id="clip0">
<rect width="24" height="24" fill="white" transform="translate(11 11)"/>
</clipPath>
</defs>
</svg>
