<svg width="46" height="46" viewBox="0 0 46 46" fill="none" xmlns="http://www.w3.org/2000/svg">
<g id="instagram-bosquejado 1">
<circle id="Ellipse 2" cx="23" cy="23" r="17" fill="white"/>
<g id="Group 10">
<path id="Vector" d="M27.4023 23C27.4023 20.5686 25.4314 18.5977 23 18.5977C20.5686 18.5977 18.5977 20.5686 18.5977 23C18.5977 25.4314 20.5686 27.4023 23 27.4023C25.4314 27.4023 27.4023 25.4314 27.4023 23Z" fill="#2D407C"/>
<path id="Vector_2" d="M33.2955 30.789C33.0839 31.3624 32.7463 31.8815 32.3076 32.3075C31.8815 32.7462 31.3628 33.0838 30.789 33.2955C30.3237 33.4762 29.6246 33.6913 28.3369 33.7499C26.944 33.8135 26.5264 33.8271 23 33.8271C19.4733 33.8271 19.0556 33.8138 17.6631 33.7503C16.3754 33.6913 15.676 33.4762 15.211 33.2955C14.6372 33.0838 14.1181 32.7462 13.6924 32.3075C13.2537 31.8815 12.9161 31.3628 12.7041 30.789C12.5234 30.3236 12.3082 29.6241 12.2496 28.3365C12.1861 26.9439 12.1724 26.5263 12.1724 22.9996C12.1724 19.4732 12.1861 19.0556 12.2496 17.6626C12.3082 16.375 12.5234 15.6759 12.7041 15.2105C12.9161 14.6367 13.2534 14.118 13.692 13.692C14.1181 13.2533 14.6368 12.9157 15.2106 12.704C15.676 12.523 16.3754 12.3078 17.6631 12.2492C19.0556 12.1857 19.4729 12.1723 22.9996 12.1723C26.5267 12.1723 26.9444 12.1857 28.3366 12.2492C29.6242 12.3078 30.3237 12.523 30.789 12.704C31.9409 13.1483 32.8512 14.0587 33.2955 15.2105C33.4763 15.6759 33.6914 16.375 33.7504 17.6626C33.8139 19.0556 33.8272 19.4732 33.8272 22.9996C33.8272 26.5263 33.8139 26.9439 33.7504 28.3365C33.6918 29.6241 33.4766 30.3236 33.2955 30.789ZM23 16.2181C19.2543 16.2181 16.2178 19.2542 16.2178 22.9999C16.2178 26.7456 19.2543 29.7817 23 29.7817C26.7454 29.7817 29.7818 26.7456 29.7818 22.9999C29.7818 19.2542 26.7454 16.2181 23 16.2181ZM30.0499 28.465C29.1747 28.465 28.465 29.1746 28.465 30.0499C28.465 30.9251 29.1747 31.6348 30.0499 31.6348C30.9252 31.6348 31.6348 30.9251 31.6348 30.0499C31.6345 29.1746 30.9252 28.465 30.0499 28.465Z" fill="#2D407C"/>
<path id="Vector_3" d="M23 46C10.2994 46 0 35.7006 0 23C0 10.2994 10.2994 0 23 0C35.7006 0 46 10.2994 46 23C46 35.7006 35.7006 46 23 46ZM36.1274 17.555C36.0635 16.1491 35.8399 15.1892 35.5135 14.349C34.8274 12.575 33.425 11.1726 31.651 10.4865C30.8111 10.1601 29.8509 9.93686 28.4454 9.87263C27.037 9.80841 26.5871 9.79297 23.0004 9.79297C19.4133 9.79297 18.9637 9.80841 17.555 9.87263C16.1494 9.93686 15.1892 10.1601 14.3494 10.4865C13.4678 10.8181 12.6697 11.3379 12.0099 12.0099C11.3382 12.6694 10.8185 13.4678 10.4868 14.349C10.1604 15.1889 9.93686 16.1491 9.87299 17.5546C9.80806 18.9633 9.79297 19.4133 9.79297 23C9.79297 26.5867 9.80806 27.0367 9.87263 28.445C9.93651 29.8509 10.1597 30.8108 10.4861 31.651C10.8177 32.5322 11.3379 33.3306 12.0099 33.9901C12.6694 34.6621 13.4678 35.1819 14.349 35.5135C15.1892 35.8399 16.1491 36.0631 17.555 36.1274C18.9633 36.1916 19.4133 36.207 23 36.207C26.5867 36.207 27.0367 36.1916 28.445 36.127C29.8509 36.0631 30.8108 35.8399 31.651 35.5139C32.5322 35.1823 33.3306 34.6621 33.9904 33.9901C34.6621 33.3303 35.1823 32.5322 35.5135 31.651C35.8403 30.8108 36.0635 29.8509 36.1277 28.445C36.1919 27.0367 36.207 26.5867 36.207 23C36.207 19.4133 36.1919 18.9633 36.1274 17.555Z" fill="#2D407C"/>
</g>
</g>
</svg>
